<!-- <svg width = "300" height = "200">
<!- circle -->
    <!-- <circle cx = "50" cy = "50" r = "50" stroke = "red" fill = "red"/> -->

    <!-- triangle -->
    <!-- <polygon points="0, 0 180, 180 360, 0 "/> -->

    <!-- Square -->
    <!-- <polygon points="0, 0 360, 0 360, 360 0, 360 "/> -->
    <!-- <text>IAB</text> -->
<!-- </svg> -->

<svg xmlns="http://www.w3.org/2000/svg" width="300" height="200">

  <!-- <polygon id="rectangle" fill="#F3BC23" stroke="#F3BC23" stroke-width="1" points="0,0,300,0,300,200,0,200"/> -->
  <!-- <rect x="-20" y="0" width="200" height="200" sytle="fill:blue;stroke:pink" /> -->
  <!-- <circle id="circle" cx = "150" cy = "100" r = "99" stroke = "red" fill = "red" opacity="0.9"/> -->
  <!-- <polygon id="triangle1" opacity="0.5" fill="gold" points="0,0,300,0,150,200"/> -->
  <!-- <polygon id="triangle2" opacity="1" fill="navy" points="20,200,150,0,280,200"/> -->
  <!-- <rect id="square" x="50" y="0" width="200" height="200" fill="green" opacity="0.9" /> -->
  <polygon id="pentagon" opacity="1" fill="navy" points="150,0,260,80,230,200,70,200,40,80"/>
  <text x="150" y="130" text-anchor="middle" fill="Violet" font-size="70"></text>
</svg>
